<?xml version="1.0" encoding="utf-8"?>
<!-- Generator: Adobe Illustrator 24.1.2, SVG Export Plug-In . SVG Version: 6.00 Build 0)  -->
<svg version="1.1" id="Layer_1" xmlns="http://www.w3.org/2000/svg" xmlns:xlink="http://www.w3.org/1999/xlink" x="0px" y="0px"
	 viewBox="0 0 200 203.3" style="enable-background:new 0 0 200 203.3;" xml:space="preserve">
<style type="text/css">
	.st0{fill:#F7F1EE;}
	.st1{fill:#FFFFFF;stroke:#F7F1EE;stroke-miterlimit:10;}
	.st2{fill:#233385;}
	.st3{fill:#D4D2CF;}
	.st4{fill:#FF2E33;}
	.st5{fill:#E6E5E5;}
	.st6{fill:#FFFFFF;}
	.st7{fill:#CCCBCA;}
	.st8{fill:none;stroke:#8CB1B7;stroke-width:1.5;stroke-linecap:round;stroke-linejoin:round;}
	.st9{fill:none;stroke:#8CB1B7;stroke-width:1.5;stroke-linecap:round;stroke-linejoin:round;stroke-dasharray:0.9991,3.9963;}
	.st10{fill:none;stroke:#8CB1B7;stroke-width:1.5;stroke-linecap:round;stroke-linejoin:round;stroke-dasharray:1.0111,4.0443;}
</style>
<ellipse class="st0" cx="104.4" cy="124.8" rx="79.2" ry="65.5"/>
<g>
	<g>
		<rect x="39.6" y="40.6" class="st1" width="129.4" height="112.1"/>
		<g>
			<g>
				<rect x="56.1" y="92.1" class="st2" width="96.5" height="2.9"/>
				<rect x="56.1" y="99.4" class="st3" width="96.5" height="2.9"/>
				<rect x="56.1" y="106.7" class="st3" width="48.2" height="2.9"/>
			</g>
			<path class="st0" d="M63.5,85.2h29.8c4.1,0,7.4-3.4,7.4-7.6c0-4.2-3.3-7.6-7.4-7.6H63.5c-4.1,0-7.4,3.4-7.4,7.6
				C56.1,81.8,59.4,85.2,63.5,85.2z"/>
			<path class="st0" d="M115.4,85.2h29.8c4.1,0,7.4-3.4,7.4-7.6c0-4.2-3.3-7.6-7.4-7.6h-29.8c-4.1,0-7.4,3.4-7.4,7.6
				C108,81.8,111.3,85.2,115.4,85.2z"/>
		</g>
		<g>
			<polygon class="st4" points="123.6,127.5 125.9,125.2 132.1,131.6 144.9,118.5 147.1,120.8 132.1,136.1 			"/>
		</g>
	</g>
	<rect x="39.6" y="40.6" class="st2" width="129.4" height="7.7"/>
	<rect x="39.6" y="48.3" class="st5" width="129.4" height="7.7"/>
	<rect x="50.9" y="50.6" class="st6" width="107" height="3.1"/>
	<rect x="39.6" y="44.5" class="st5" width="26.8" height="3.8"/>
	<g>
		<g>
			<rect x="46" y="50.6" class="st7" width="2.6" height="3.1"/>
			<rect x="41.9" y="50.6" class="st7" width="2.6" height="3.1"/>
			<rect x="164.2" y="50.6" class="st7" width="2.6" height="3.1"/>
			<rect x="160.1" y="50.6" class="st7" width="2.6" height="3.1"/>
		</g>
	</g>
</g>
<g>
	<g>
		<path class="st8" d="M79.3,40c0.1-0.1,0.3-0.2,0.4-0.3"/>
		<path class="st9" d="M83.1,37.6c20.9-13.8,38.6-33.8,61.2-28.4c44.1,10.4,55.1,70.9,38.8,104.2c-7.2,14.7-20.8,15.8-26.3,15.6"/>
		<path class="st8" d="M154.8,128.8c-0.3,0-0.5-0.1-0.5-0.1"/>
	</g>
</g>
<g>
	<g>
		<path class="st8" d="M116.1,80.3c0,0-0.1,0.1-0.3,0.4"/>
		<path class="st10" d="M113.2,83.7C102,96.3,62,139,37,135.6c-36.4-5-21.8-37.1-17.1-43.5c5.8-7.9,7.3-9.7,14.1-15.8"/>
		<path class="st8" d="M35.6,74.9c0.1-0.1,0.2-0.2,0.4-0.3"/>
	</g>
</g>
</svg>
